<svg xmlns="http://www.w3.org/2000/svg" width="1440" height="960" viewBox="0 0 1440 960">
  <rect width="1440" height="960" fill="#f8fafc"/>
  <rect x="0" y="0" width="1440" height="68" fill="#ffffff" stroke="#e2e8f0"/>
  <text x="32" y="42" font-family="Segoe UI, Arial" font-size="22" fill="#0f172a">Trip: Kyoto Spring Plan</text>

  <rect x="24" y="92" width="860" height="840" rx="14" fill="#ffffff" stroke="#e2e8f0"/>
  <text x="48" y="128" font-family="Segoe UI, Arial" font-size="20" fill="#0f172a">Itinerary Board</text>
  <text x="48" y="150" font-family="Segoe UI, Arial" font-size="12" fill="#64748b">Desktop with day sections and draggable items</text>

  <rect x="48" y="176" width="812" height="180" rx="12" fill="#f8fafc" stroke="#cbd5e1"/>
  <text x="64" y="204" font-family="Segoe UI, Arial" font-size="14" fill="#334155">Day 1 • Mar 12</text>
  <rect x="64" y="220" width="220" height="118" rx="10" fill="#ffffff" stroke="#cbd5e1"/>
  <text x="78" y="248" font-family="Segoe UI, Arial" font-size="13" fill="#0f172a">Kiyomizu-dera</text>
  <text x="78" y="270" font-family="Segoe UI, Arial" font-size="12" fill="#64748b">Drag handle + fallback move menu</text>
  <rect x="300" y="220" width="220" height="118" rx="10" fill="#ffffff" stroke="#cbd5e1"/>
  <text x="314" y="248" font-family="Segoe UI, Arial" font-size="13" fill="#0f172a">Gion Walk</text>

  <rect x="48" y="372" width="812" height="180" rx="12" fill="#f8fafc" stroke="#cbd5e1"/>
  <text x="64" y="400" font-family="Segoe UI, Arial" font-size="14" fill="#334155">Day 2 • Mar 13</text>
  <rect x="64" y="416" width="220" height="118" rx="10" fill="#ffffff" stroke="#cbd5e1"/>
  <text x="78" y="444" font-family="Segoe UI, Arial" font-size="13" fill="#0f172a">Arashiyama</text>

  <rect x="48" y="568" width="812" height="140" rx="12" fill="#fff7ed" stroke="#fdba74"/>
  <text x="64" y="596" font-family="Segoe UI, Arial" font-size="14" fill="#9a3412">Places To Visit (Backlog)</text>
  <rect x="64" y="612" width="220" height="78" rx="10" fill="#ffffff" stroke="#fdba74"/>
  <text x="78" y="640" font-family="Segoe UI, Arial" font-size="13" fill="#7c2d12">Fushimi Inari</text>

  <rect x="908" y="92" width="508" height="840" rx="14" fill="#ffffff" stroke="#e2e8f0"/>
  <text x="930" y="128" font-family="Segoe UI, Arial" font-size="20" fill="#0f172a">Map Panel</text>
  <text x="930" y="150" font-family="Segoe UI, Arial" font-size="12" fill="#64748b">Desktop split-view reference</text>
  <rect x="930" y="170" width="464" height="742" rx="12" fill="#e2e8f0"/>
  <circle cx="1040" cy="360" r="10" fill="#0284c7"/>
  <circle cx="1120" cy="420" r="10" fill="#0284c7"/>
  <circle cx="1200" cy="510" r="10" fill="#f97316"/>
</svg>

