<svg xmlns="http://www.w3.org/2000/svg" width="430" height="932" viewBox="0 0 430 932">
  <rect width="430" height="932" fill="#f8fafc"/>
  <rect x="0" y="0" width="430" height="62" fill="#ffffff" stroke="#e2e8f0"/>
  <text x="16" y="38" font-family="Segoe UI, Arial" font-size="18" fill="#0f172a">Kyoto Spring Plan</text>

  <rect x="16" y="80" width="398" height="44" rx="10" fill="#ffffff" stroke="#cbd5e1"/>
  <text x="30" y="108" font-family="Segoe UI, Arial" font-size="13" fill="#475569">Itinerary  |  Collaborators  |  Expenses</text>

  <rect x="16" y="138" width="398" height="140" rx="12" fill="#ffffff" stroke="#cbd5e1"/>
  <text x="30" y="168" font-family="Segoe UI, Arial" font-size="14" fill="#334155">Day 1 • Mar 12</text>
  <rect x="30" y="182" width="368" height="78" rx="10" fill="#f8fafc" stroke="#cbd5e1"/>
  <text x="44" y="208" font-family="Segoe UI, Arial" font-size="13" fill="#0f172a">Kiyomizu-dera</text>
  <text x="44" y="228" font-family="Segoe UI, Arial" font-size="12" fill="#64748b">Drag handle + Move menu fallback</text>

  <rect x="16" y="292" width="398" height="140" rx="12" fill="#ffffff" stroke="#cbd5e1"/>
  <text x="30" y="322" font-family="Segoe UI, Arial" font-size="14" fill="#334155">Day 2 • Mar 13</text>
  <rect x="30" y="336" width="368" height="78" rx="10" fill="#f8fafc" stroke="#cbd5e1"/>
  <text x="44" y="362" font-family="Segoe UI, Arial" font-size="13" fill="#0f172a">Arashiyama</text>

  <rect x="16" y="446" width="398" height="120" rx="12" fill="#fff7ed" stroke="#fdba74"/>
  <text x="30" y="476" font-family="Segoe UI, Arial" font-size="14" fill="#9a3412">Places To Visit</text>
  <text x="30" y="500" font-family="Segoe UI, Arial" font-size="12" fill="#9a3412">Backlog list with sortable priority</text>

  <rect x="16" y="588" width="398" height="46" rx="10" fill="#0ea5e9"/>
  <text x="166" y="616" font-family="Segoe UI, Arial" font-size="14" fill="#ffffff">Add Item</text>

  <rect x="0" y="864" width="430" height="68" fill="#ffffff" stroke="#e2e8f0"/>
  <text x="48" y="904" font-family="Segoe UI, Arial" font-size="12" fill="#334155">Home</text>
  <text x="132" y="904" font-family="Segoe UI, Arial" font-size="12" fill="#334155">Discover</text>
  <text x="220" y="904" font-family="Segoe UI, Arial" font-size="12" fill="#334155">Bell</text>
  <text x="302" y="904" font-family="Segoe UI, Arial" font-size="12" fill="#0284c7">Profile</text>
</svg>

