<svg xmlns="http://www.w3.org/2000/svg" width="430" height="932" viewBox="0 0 430 932">
  <rect width="430" height="932" fill="#f8fafc"/>
  <rect x="0" y="0" width="430" height="64" fill="#ffffff" stroke="#e2e8f0"/>
  <text x="16" y="40" font-family="Segoe UI, Arial" font-size="20" fill="#0f172a">Travel Companion</text>

  <rect x="16" y="84" width="398" height="40" rx="10" fill="#ffffff" stroke="#cbd5e1"/>
  <text x="30" y="109" font-family="Segoe UI, Arial" font-size="13" fill="#64748b">Search public trips</text>

  <rect x="16" y="140" width="398" height="132" rx="12" fill="#ffffff" stroke="#cbd5e1"/>
  <text x="30" y="172" font-family="Segoe UI, Arial" font-size="15" fill="#0f172a">Lisbon in 4 Days</text>
  <text x="30" y="194" font-family="Segoe UI, Arial" font-size="12" fill="#64748b">Public • Updated 2d ago</text>
  <rect x="30" y="220" width="120" height="32" rx="8" fill="#0284c7"/>
  <text x="64" y="241" font-family="Segoe UI, Arial" font-size="12" fill="#ffffff">Open trip</text>

  <rect x="16" y="286" width="398" height="132" rx="12" fill="#ffffff" stroke="#cbd5e1"/>
  <text x="30" y="318" font-family="Segoe UI, Arial" font-size="15" fill="#0f172a">Kyoto Spring Plan</text>
  <text x="30" y="340" font-family="Segoe UI, Arial" font-size="12" fill="#64748b">Public • Updated 1w ago</text>

  <rect x="16" y="702" width="398" height="210" rx="16" fill="#ffffff" stroke="#cbd5e1"/>
  <text x="36" y="740" font-family="Segoe UI, Arial" font-size="18" fill="#0f172a">Copy this trip</text>
  <text x="36" y="764" font-family="Segoe UI, Arial" font-size="13" fill="#475569">Sign in or create an account to continue.</text>
  <rect x="36" y="786" width="356" height="44" rx="10" fill="#ffffff" stroke="#cbd5e1"/>
  <text x="146" y="813" font-family="Segoe UI, Arial" font-size="14" fill="#334155">Continue with Google</text>
  <rect x="36" y="842" width="356" height="44" rx="10" fill="#0284c7"/>
  <text x="152" y="869" font-family="Segoe UI, Arial" font-size="14" fill="#ffffff">Sign up with Email</text>
</svg>

